# xmcd
#
# Track frame offsets:
# 150
# 24069
# 37942
# 56316
# 73755
# 95908
# 119053
# 144912
# 166324
# 190371
# 209506
# 228565
# 250199
# 273938
#
# Disc length: 4012 seconds
#
#
# Revision: 0
# Processed by: cddbd v1.5.2PL0 Copyright (c) Steve Scherf et al.
# Submitted via: FreeRIP 2.944 
#
DISCID=c60faa0e
DTITLE=LAmour-Sackett02 - Far-Blue-Mt4
DYEAR=1976
DGENRE=Booty Bass
TTITLE0=401
TTITLE1=402
TTITLE2=403
TTITLE3=404
TTITLE4=405
TTITLE5=406
TTITLE6=407
TTITLE7=408
TTITLE8=408
TTITLE9=410
TTITLE10=411
TTITLE11=412
TTITLE12=413
TTITLE13=414
EXTD=To the Far Blue Mountains by Louis A'mour\nread by John Curless - Sacketts 1976\nRandom House Inc 8 CDs
EXTT0=
EXTT1=
EXTT2=
EXTT3=
EXTT4=
EXTT5=
EXTT6=
EXTT7=
EXTT8=
EXTT9=
EXTT10=
EXTT11=
EXTT12=
EXTT13=
PLAYORDER=
